<svg xmlns="http://www.w3.org/2000/svg" version="1.1" xmlns:xlink="http://www.w3.org/1999/xlink" xmlns:svgjs="http://svgjs.com/svgjs" width="1440" height="20000" preserveAspectRatio="none" viewBox="0 0 1440 20000">
    <g mask="url(&quot;#SvgjsMask1009&quot;)" fill="none">
        <rect width="1440" height="20000" x="0" y="0" fill="rgba(44, 51, 59, 1)"></rect>
        <path d="M571.09-106.32C421.21-40.05 396.46 428.66 198.17 432.79-0.12 436.92-60.62 177.51-174.75 163.99" stroke="rgba(40, 46, 53, 0.62)" stroke-width="1"></path>
        <path d="M1044.84-74.89C898.03-22.72 877.42 400.48 657.85 413.59 438.27 426.7 464.35 343.59 270.85 343.59 77.36 343.59-17.82 413.31-116.14 413.59" stroke="rgba(40, 46, 53, 0.62)" stroke-width="1"></path>
        <path d="M1193.93-72.41C1040.42-16.63 1020.97 427.83 791.57 442.3 562.17 456.77 590.39 372.3 389.21 372.3 188.03 372.3 88.95 442.04-13.15 442.3" stroke="rgba(40, 46, 53, 0.62)" stroke-width="1"></path>
        <path d="M757.33-95.08C644.9-23.73 705.06 370.1 504.53 373.74 304 377.38 135.47 170.51-1.07 166.54" stroke="rgba(40, 46, 53, 0.62)" stroke-width="1"></path>
        <path d="M1168.5-46.77C970.91-8.29 885.92 490.49 573.03 495.24 260.15 499.99 131.51 339.75-22.43 338.44" stroke="rgba(40, 46, 53, 0.62)" stroke-width="1"></path>
    </g>
    <defs>
        <mask id="SvgjsMask1009">
            <rect width="1440" height="20000" fill="rgba(44, 51, 59, 1)"></rect>
        </mask>
    </defs>
</svg>