<svg xmlns="http://www.w3.org/2000/svg" viewBox="0 0 743.471 756.631">
  <path id="test" d="M287.736-37.09c31.632,24.49,50.34,64.625,79.251,103.06s67.686,74.829,81.292,119.046c13.265,44.217,1.361,95.917-21.768,144.9-22.789,48.639-56.462,94.217-101.359,124.148-44.9,29.591-101.019,43.537-152.379,34.353-51.02-8.843-96.6-41.156-134.352-75.169C1,379.232-28.587,343.518-41.852,303.722c-13.605-39.8-10.884-82.992-16.326-129.59s-19.047-96.6-6.463-137.413,51.7-72.788,94.9-90.815c42.857-17.687,90.135-21.428,136.053-19.047C211.886-70.423,256.1-61.58,287.736-37.09Z" transform="matrix(0.848, 0.53, -0.53, 0.848, 319.516, 99.578)" fill="#e5faf2"/>
</svg>
